<?xml version="1.0" encoding="UTF-8" standalone="no"?>
<svg
   xmlns:dc="http://purl.org/dc/elements/1.1/"
   xmlns:cc="http://creativecommons.org/ns#"
   xmlns:rdf="http://www.w3.org/1999/02/22-rdf-syntax-ns#"
   xmlns:svg="http://www.w3.org/2000/svg"
   xmlns="http://www.w3.org/2000/svg"
   id="svg4136"
   viewBox="0 0 24 24"
   height="24"
   width="24"
   version="1.1">
  <metadata
     id="metadata4144">
    <rdf:RDF>
      <cc:Work
         rdf:about="">
        <dc:format>image/svg+xml</dc:format>
        <dc:type
           rdf:resource="http://purl.org/dc/dcmitype/StillImage" />
        <dc:title></dc:title>
      </cc:Work>
    </rdf:RDF>
  </metadata>
  <defs
     id="defs4142" />
  <path
     id="path4138"
     d="M16,9C18.33,9 23,10.17 23,12.5V15H17V12.5C17,11 16.19,9.89 15.04,9.05L16,9M8,9C10.33,9 15,10.17 15,12.5V15H1V12.5C1,10.17 5.67,9 8,9M8,7A3,3 0 0,1 5,4A3,3 0 0,1 8,1A3,3 0 0,1 11,4A3,3 0 0,1 8,7M16,7A3,3 0 0,1 13,4A3,3 0 0,1 16,1A3,3 0 0,1 19,4A3,3 0 0,1 16,7M9,16.75V19H15V16.75L18.25,20L15,23.25V21H9V23.25L5.75,20L9,16.75Z" />
</svg>
