<?xml version="1.0" encoding="UTF-8" standalone="no"?>
<svg
   xmlns:dc="http://purl.org/dc/elements/1.1/"
   xmlns:cc="http://creativecommons.org/ns#"
   xmlns:rdf="http://www.w3.org/1999/02/22-rdf-syntax-ns#"
   xmlns:svg="http://www.w3.org/2000/svg"
   xmlns="http://www.w3.org/2000/svg"
   id="svg7509"
   viewBox="0 0 24 24"
   height="24"
   width="24"
   version="1.1">
  <metadata
     id="metadata7517">
    <rdf:RDF>
      <cc:Work
         rdf:about="">
        <dc:format>image/svg+xml</dc:format>
        <dc:type
           rdf:resource="http://purl.org/dc/dcmitype/StillImage" />
        <dc:title></dc:title>
      </cc:Work>
    </rdf:RDF>
  </metadata>
  <defs
     id="defs7515" />
  <path
     id="path7511"
     d="M 14.700557,14 C 17.303621,14 22.5,15.33 22.5,18 l 0,2 -15.5988858,0 0,-2 c 0,-2.67 5.1963788,-4 7.7994428,-4 m 0,-2 a 3.8997214,4 0 0 1 -3.899721,-4 3.8997214,4 0 0 1 3.899721,-4 3.8997214,4 0 0 1 3.899722,4 3.8997214,4 0 0 1 -3.899722,4 M 4.9512535,9.59 7.0181058,7.46 8.402507,8.88 6.3259053,11 8.402507,13.12 7.0181058,14.54 4.9512535,12.41 2.8844011,14.54 1.5,13.12 3.5766017,11 1.5,8.88 2.8844011,7.46 4.9512535,9.59 Z" />
</svg>
