<?xml version="1.0" encoding="UTF-8" standalone="no"?>
<svg
   xmlns:dc="http://purl.org/dc/elements/1.1/"
   xmlns:cc="http://creativecommons.org/ns#"
   xmlns:rdf="http://www.w3.org/1999/02/22-rdf-syntax-ns#"
   xmlns:svg="http://www.w3.org/2000/svg"
   xmlns="http://www.w3.org/2000/svg"
   id="svg6409"
   viewBox="0 0 24 24"
   height="24"
   width="24"
   version="1.1">
  <metadata
     id="metadata6417">
    <rdf:RDF>
      <cc:Work
         rdf:about="">
        <dc:format>image/svg+xml</dc:format>
        <dc:type
           rdf:resource="http://purl.org/dc/dcmitype/StillImage" />
        <dc:title></dc:title>
      </cc:Work>
    </rdf:RDF>
  </metadata>
  <defs
     id="defs6415" />
  <path
     id="path6411"
     d="m 21.243007,13.35 -0.996781,1 -2.043401,-2.05 0.996781,-1 c 0.209324,-0.21 0.558197,-0.21 0.767522,0 l 1.275879,1.28 c 0.209324,0.21 0.209324,0.56 0,0.77 m -9.668767,5.59 6.040484,-6.06 2.043401,2.05 -6.030517,6.07 -2.053368,0 0,-2.06 m 0,-4.94 C 7.1684726,14 3.6,15.79 3.6,18 l 0,2 5.9806807,0 0,-1.89 3.9871213,-4 C 12.909926,14.03 12.242083,14 11.57424,14 m 0,-10 A 3.9871206,4 0 0 0 7.5871206,8 3.9871206,4 0 0 0 11.57424,12 3.9871206,4 0 0 0 15.561363,8 3.9871206,4 0 0 0 11.57424,4 Z" />
</svg>
