<?xml version="1.0" encoding="UTF-8" standalone="no"?>
<svg
   xmlns:dc="http://purl.org/dc/elements/1.1/"
   xmlns:cc="http://creativecommons.org/ns#"
   xmlns:rdf="http://www.w3.org/1999/02/22-rdf-syntax-ns#"
   xmlns:svg="http://www.w3.org/2000/svg"
   xmlns="http://www.w3.org/2000/svg"
   height="24"
   width="24"
   xml:space="preserve"
   viewBox="0 0 24 24"
   y="0px"
   x="0px"
   id="Layer_1"
   version="1.1"><metadata
     id="metadata4178"><rdf:RDF><cc:Work
         rdf:about=""><dc:format>image/svg+xml</dc:format><dc:type
           rdf:resource="http://purl.org/dc/dcmitype/StillImage" /><dc:title></dc:title></cc:Work></rdf:RDF></metadata><defs
     id="defs4176" /><style
     id="style4160"
     type="text/css">
	.st0{display:none;}
</style><g
     transform="matrix(0.84033613,0,0,0.86734695,1.0756303,0.63775491)"
     id="g4162"><g
       id="g4164"><circle
         id="circle4166"
         r="4"
         cy="7.3000002"
         cx="9" /><path
         id="path4168"
         d="m 15.8,15.2 c -1.4,-1.1 -3.9,-1.8 -6.7,-1.8 -4.4,0 -8,1.8 -8,4 l 0,2 11.2,0 c 0.6,-1.8 1.9,-3.3 3.5,-4.2 z" /></g><g
       id="g4170"><path
         id="path4172"
         d="m 19.6,17.9 c -0.8,0 -1.4,0.6 -1.4,1.4 0,0.8 0.6,1.4 1.4,1.4 0.8,0 1.4,-0.6 1.4,-1.4 0,-0.8 -0.6,-1.4 -1.4,-1.4 m 0,3.8 c -1.3,0 -2.4,-1.1 -2.4,-2.4 0,-1.3 1.1,-2.4 2.4,-2.4 1.3,0 2.4,1.1 2.4,2.4 0,1.3 -1.1,2.4 -2.4,2.4 m 0,-6 c -2.4,0 -4.5,1.5 -5.3,3.6 0.8,2.1 2.9,3.6 5.3,3.6 2.4,0 4.5,-1.5 5.3,-3.6 -0.8,-2.1 -2.9,-3.6 -5.3,-3.6 z" /></g></g></svg>