<?xml version="1.0" encoding="UTF-8" standalone="no"?>
<svg
   xmlns:dc="http://purl.org/dc/elements/1.1/"
   xmlns:cc="http://creativecommons.org/ns#"
   xmlns:rdf="http://www.w3.org/1999/02/22-rdf-syntax-ns#"
   xmlns:svg="http://www.w3.org/2000/svg"
   xmlns="http://www.w3.org/2000/svg"
   height="24"
   width="24"
   xml:space="preserve"
   viewBox="0 0 24 24"
   y="0px"
   x="0px"
   id="Layer_1"
   version="1.1"><metadata
     id="metadata5867"><rdf:RDF><cc:Work
         rdf:about=""><dc:format>image/svg+xml</dc:format><dc:type
           rdf:resource="http://purl.org/dc/dcmitype/StillImage" /><dc:title></dc:title></cc:Work></rdf:RDF></metadata><defs
     id="defs5865" /><style
     id="style5847"
     type="text/css">
	.st0{display:none;}
</style><path
     style="display:none"
     id="path5849"
     d="m -211.5,-42.5 c 2.2,0 4,1.8 4,4 0,2.2 -1.8,4 -4,4 -2.2,0 -4,-1.8 -4,-4 0,-2.2 1.8,-4 4,-4 m 0,10 c 4.4,0 8,1.8 8,4 l 0,2 -16,0 0,-2 c 0,-2.2 3.5,-4 8,-4 z"
     class="st0" /><path
     style="display:none"
     id="path5851"
     d="m -254.7,1.7 c -2.2,0 -4,1.8 -4,4 0,2.2 1.8,4 4,4 2.2,0 4,-1.8 4,-4 0,-2.2 -1.8,-4 -4,-4 m 0,10 c -2.7,0 -8,1.3 -8,4 l 0,2 11.1,0 c -0.1,-0.3 -0.1,-0.7 -0.1,-1 0,-1.5 0.5,-3 1.4,-4.2 -1.5,-0.6 -3.2,-0.8 -4.4,-0.8"
     class="st0" /><g
     transform="matrix(0.90243902,0,0,0.88785047,0.49390245,0.36915881)"
     id="g5853"><g
       id="g5855"><circle
         id="circle5857"
         r="4"
         cy="6.4000001"
         cx="10.5" /><path
         id="path5859"
         d="m 14.7,17.2 c 0,-0.1 0,-0.2 0,-0.3 0,-1.3 0.6,-2.5 1.6,-3.3 -1.5,-0.8 -3.5,-1.2 -5.8,-1.2 -4.4,0 -8,1.8 -8,4 l 0,2 12.2,0 0,-1.2 z" /></g><path
       id="path5861"
       d="m 20.2,18.6 0,-2.2 2.2,2.2 m -5,-2.8 c -0.4,0 -0.8,0.4 -0.8,0.8 l 0,6.4 c 0,0.4 0.4,0.8 0.8,0.8 l 4.8,0 c 0.4,0 0.8,-0.4 0.8,-0.8 l 0,-4.8 -2.4,-2.4 -3.2,0 z" /></g></svg>