<?xml version="1.0" encoding="UTF-8" standalone="no"?>
<svg
   xmlns:dc="http://purl.org/dc/elements/1.1/"
   xmlns:cc="http://creativecommons.org/ns#"
   xmlns:rdf="http://www.w3.org/1999/02/22-rdf-syntax-ns#"
   xmlns:svg="http://www.w3.org/2000/svg"
   xmlns="http://www.w3.org/2000/svg"
   id="svg4136"
   viewBox="0 0 24 24"
   height="24"
   width="24"
   version="1.1">
  <metadata
     id="metadata4146">
    <rdf:RDF>
      <cc:Work
         rdf:about="">
        <dc:format>image/svg+xml</dc:format>
        <dc:type
           rdf:resource="http://purl.org/dc/dcmitype/StillImage" />
        <dc:title>logo</dc:title>
      </cc:Work>
    </rdf:RDF>
  </metadata>
  <defs
     id="defs4144" />
  <title
     id="title4138">logo</title>
  <path
     id="path4140"
     d="m 19.154662,4.0014997 -7.168051,0.013997 c -10e-4,0 -0.0021,0 -0.0031,0 -0.158567,0 -0.308207,0.037993 -0.438946,0.1054802 l 0.0047,-0.0025 L 8.9796261,5.440729 C 8.8746151,5.5162157 8.7459766,5.5677061 8.605787,5.5837031 l -0.00368,4.999e-4 -3.7693696,0 C 4.8222361,5.5837031 4.8096348,5.5832031 4.7975585,5.5832031 4.372789,5.5832031 4.0257277,5.8981441 4,6.296569 l 0,0.002 0,12.985565 C 4.026778,19.684559 4.3748892,20 4.7996587,20 c 0.016802,0 0.033603,-5e-4 0.050405,-0.0015 l -0.0021,0 14.2914713,0 c 0.01418,0.001 0.0315,0.0015 0.0483,0.0015 0.424244,0 0.771831,-0.313941 0.799659,-0.711867 l 0,-0.0025 L 20,4.7238643 C 19.977423,4.3194401 19.627736,4 19.199816,4 c -0.01628,0 -0.03203,4.999e-4 -0.04778,0.0015 l 0.0021,0 z M 10.73593,7.550334 12.64398,6.442042 c 0.03518,-0.023 0.07876,-0.03699 0.125488,-0.03699 0.06511,0 0.123913,0.0265 0.164342,0.06899 l 0,0 0.379615,0.627882 c 0.02783,0.03599 0.04463,0.08099 0.04463,0.129976 0,0.07998 -0.04463,0.149972 -0.111312,0.188465 l -0.0011,5e-4 -2.037213,0.873836 c -0.0315,0.022 -0.07141,0.03549 -0.114987,0.03549 -0.08716,0 -0.160667,-0.05399 -0.18587,-0.128976 l -5.25e-4,-0.0015 -0.239425,-0.447916 c -0.0084,-0.0185 -0.01313,-0.03999 -0.01313,-0.06299 0,-0.05849 0.03203,-0.109479 0.08033,-0.138474 l 5.25e-4,-5e-4 z m 3.746267,3.271887 c 0,0.111479 -0.09503,0.201962 -0.212122,0.201962 l 0,0 -3.037968,0 0,1.295757 2.501887,0 c 0.117087,0 0.212122,0.09048 0.212122,0.201962 l 0,0 0,1.138287 c 0,0.111479 -0.09503,0.201962 -0.212122,0.201962 l 0,0 -2.501887,0 0,1.412735 3.037968,0 c 0.117087,0 0.212122,0.09048 0.212122,0.201962 l 0,0 0,1.138287 c 0,0.111479 -0.09503,0.201962 -0.212122,0.201962 l 0,0 -4.5412003,0 c -0.1170872,0 -0.2121222,-0.09048 -0.2121222,-0.201962 l 0,0 0,-6.923702 c 0,-0.111479 0.095035,-0.201962 0.2121222,-0.201962 l 0,0 4.5412003,0 c 0.117087,0 0.212122,0.09048 0.212122,0.201962 l 0,0 0,1.130288 z" />
</svg>
